<svg xmlns="http://www.w3.org/2000/svg" viewBox="0 0 960 470" width="960" height="470" role="img" aria-labelledby="title desc"><title id="title">Different camera counters measure different boundaries</title><desc id="desc">Two-slot versus six-slot legacy 4A102 preview comparison; no 7E18 frame rate is inferred.</desc><rect width="960" height="470" fill="#f5f8fb"/><g font-family="Arial, sans-serif"><text x="30" y="36" fill="#3568b5" font-size="14" letter-spacing="1">LEGACY 4A102 CAMERA / ONE PHYSICAL PAIR</text><rect x="635" y="27" width="14" height="14" fill="#3568b5"/><text x="657" y="39" fill="#21384f" font-size="14" >Two slots</text><rect x="785" y="27" width="14" height="14" fill="#8ab2e4"/><text x="807" y="39" fill="#21384f" font-size="14" >Six slots</text><text x="30" y="109" fill="#21384f" font-size="17" >Native deliveries</text><rect x="270" y="83" width="465.4678863252413" height="23" fill="#3568b5"/><text x="747.4678863252414" y="100" fill="#21384f" font-size="14" >29.621</text><rect x="270" y="114" width="412.95167031629313" height="23" fill="#8ab2e4"/><text x="694.9516703162931" y="131" fill="#21384f" font-size="14" >26.279</text><text x="30" y="219" fill="#21384f" font-size="17" >Distinct selected images</text><rect x="270" y="193" width="124.03446946464601" height="23" fill="#3568b5"/><text x="406.034469464646" y="210" fill="#21384f" font-size="14" >7.893</text><rect x="270" y="224" width="259.5967495791425" height="23" fill="#8ab2e4"/><text x="541.5967495791425" y="241" fill="#21384f" font-size="14" >16.520</text><text x="30" y="329" fill="#21384f" font-size="17" >Panel update counter</text><rect x="270" y="303" width="474.7303294285873" height="23" fill="#3568b5"/><text x="756.7303294285873" y="320" fill="#21384f" font-size="14" >30.210</text><rect x="270" y="334" width="479.9750292441685" height="23" fill="#8ab2e4"/><text x="761.9750292441686" y="351" fill="#21384f" font-size="14" >30.544</text><text x="270" y="420" fill="#59768f" font-size="12" >0</text><path d="M270 407L270 412" stroke="#59768f" stroke-width="2" fill="none" /><text x="348.57142857142856" y="420" fill="#59768f" font-size="12" >5</text><path d="M348.57142857142856 407L348.57142857142856 412" stroke="#59768f" stroke-width="2" fill="none" /><text x="427.1428571428571" y="420" fill="#59768f" font-size="12" >10</text><path d="M427.1428571428571 407L427.1428571428571 412" stroke="#59768f" stroke-width="2" fill="none" /><text x="505.71428571428567" y="420" fill="#59768f" font-size="12" >15</text><path d="M505.71428571428567 407L505.71428571428567 412" stroke="#59768f" stroke-width="2" fill="none" /><text x="584.2857142857142" y="420" fill="#59768f" font-size="12" >20</text><path d="M584.2857142857142 407L584.2857142857142 412" stroke="#59768f" stroke-width="2" fill="none" /><text x="662.8571428571429" y="420" fill="#59768f" font-size="12" >25</text><path d="M662.8571428571429 407L662.8571428571429 412" stroke="#59768f" stroke-width="2" fill="none" /><text x="741.4285714285713" y="420" fill="#59768f" font-size="12" >30</text><path d="M741.4285714285713 407L741.4285714285713 412" stroke="#59768f" stroke-width="2" fill="none" /><text x="820" y="420" fill="#59768f" font-size="12" >35</text><path d="M820 407L820 412" stroke="#59768f" stroke-width="2" fill="none" /><text x="30" y="448" fill="#21384f" font-size="14" >events/s · Unequal intervals. Selection/update counters do not prove individual physical frames.</text></g></svg>
